<svg xmlns="http://www.w3.org/2000/svg" data-name="Layer 1" viewBox="0 0 32 32"><path d="M29.92,12.27a.5.5,0,0,0-.84.54,6,6,0,0,1,0,6.38.5.5,0,0,0,.15.69.47.47,0,0,0,.27.08.48.48,0,0,0,.42-.23,7,7,0,0,0,0-7.46ZM21.5,2h-11A2.5,2.5,0,0,0,8,4.5v23A2.5,2.5,0,0,0,10.5,30h11A2.5,2.5,0,0,0,24,27.5V4.5A2.5,2.5,0,0,0,21.5,2ZM23,27.5A1.5,1.5,0,0,1,21.5,29h-11A1.5,1.5,0,0,1,9,27.5V4.5A1.5,1.5,0,0,1,10.5,3h11A1.5,1.5,0,0,1,23,4.5ZM10.5,5a.5.5,0,1,0-.5-.5A.5.5,0,0,0,10.5,5ZM4.82,12.79a.52.52,0,0,0-.71.07,5,5,0,0,0,0,6.28.51.51,0,0,0,.39.18.56.56,0,0,0,.32-.11.52.52,0,0,0,.07-.71,4,4,0,0,1,0-5A.52.52,0,0,0,4.82,12.79Zm-2.05-.67a.5.5,0,0,0-.69.15,7,7,0,0,0,0,7.46A.48.48,0,0,0,2.5,20a.47.47,0,0,0,.27-.08.5.5,0,0,0,.15-.69,6,6,0,0,1,0-6.38A.5.5,0,0,0,2.77,12.12ZM10.5,27a.5.5,0,1,0,.5.5A.5.5,0,0,0,10.5,27ZM16,11a2,2,0,1,0-2-2A2,2,0,0,0,16,11Zm0-3a1,1,0,1,1-1,1A1,1,0,0,1,16,8Zm0,5a4,4,0,1,0-4-4A4,4,0,0,0,16,13Zm0-7a3,3,0,1,1-3,3A3,3,0,0,1,16,6Zm0,11a4,4,0,1,0,4,4A4,4,0,0,0,16,17Zm0,7a3,3,0,1,1,3-3A3,3,0,0,1,16,24Zm0-9a6,6,0,1,0,6,6A6,6,0,0,0,16,15Zm0,11a5,5,0,1,1,5-5A5,5,0,0,1,16,26ZM21.5,4a.5.5,0,1,0,.5.5A.5.5,0,0,0,21.5,4Zm2-4H8.5A2.5,2.5,0,0,0,6,2.5v27A2.5,2.5,0,0,0,8.5,32h15A2.5,2.5,0,0,0,26,29.5V2.5A2.5,2.5,0,0,0,23.5,0ZM25,29.5A1.5,1.5,0,0,1,23.5,31H8.5A1.5,1.5,0,0,1,7,29.5V2.5A1.5,1.5,0,0,1,8.5,1h15A1.5,1.5,0,0,1,25,2.5ZM21.5,27a.5.5,0,1,0,.5.5A.5.5,0,0,0,21.5,27Zm5.68-14.21a.52.52,0,0,0-.07.71,4,4,0,0,1,0,5,.52.52,0,0,0,.07.71.56.56,0,0,0,.32.11.51.51,0,0,0,.39-.18,5,5,0,0,0,0-6.28A.52.52,0,0,0,27.18,12.79ZM16,20a1,1,0,1,0,1,1A1,1,0,0,0,16,20Zm0,1Z"/></svg>